<svg xmlns="http://www.w3.org/2000/svg" xmlns:xlink="http://www.w3.org/1999/xlink" width="56" height="47" viewBox="0 0 56 47"><defs><path id="uvloa" d="M404.5 404.15c.3.84.65 1.68 1.05 2.5l-10.66 5.77-19.9-12.36v-24l20.93-7.72 21.36 8.58v6.56a3.56 3.56 0 0 0-2.68 1.68l-.03.04v-5.32l-18.31 7.72v21zm7.86-26.28l-6.97-2.8-16.67 6.9 6.22 3.25zm-16.48-6.63l-16.22 5.99 5.93 3.1 16.21-6.71zm-18.2 27.3l15.87 9.86v-20.86l-6.76-3.52v6.44l-2.7-1.47v-6.39l-6.4-3.35zm40.64 16.35c-.18.08-.36.11-.53.11h-.11c-.17 0-.35-.03-.53-.1-13.58-5.76-12.34-23.45-12.28-24.2a1.36 1.36 0 0 1 1.5-1.24c7.58.9 10.06-2.86 10.16-3.02.24-.37.63-.58 1.04-.62h.07c.5-.06 1.02.17 1.3.63.12.18 2.6 3.9 10.14 3a1.35 1.35 0 0 1 1.5 1.25c.07.75 1.3 18.44-12.26 24.2zm9.6-22.61c-5.57.3-8.7-1.72-10.18-3.13-1.5 1.42-4.62 3.43-10.2 3.13.01 3.98.89 15.58 10.2 19.9 9.29-4.32 10.17-15.92 10.18-19.9zm-5.94 2.96l2.14 1.65-6.43 8.31-5.43-4.41 1.7-2.1 3.28 2.66z"/></defs><g><g transform="translate(-375 -368)"><use fill="#0f1a4d" xlink:href="#uvloa"/></g></g></svg>