<svg xmlns="http://www.w3.org/2000/svg" xmlns:xlink="http://www.w3.org/1999/xlink" width="44" height="43" viewBox="0 0 44 43"><defs><path id="ua33a" d="M779.7 394.34c-.32 1.67-2.84 1.2-2.53-.47.31-1.67 2.83-1.2 2.52.47zm-.21 2.77a1.28 1.28 0 1 1-2.12 1.45 1.28 1.28 0 0 1 2.12-1.45zM747 407.31h43.99V413h-2.7v-3H749.7v3H747zm10.7-10.27v6.48H755v-6.48zm9-21.11H764v-5.94h6.96v5.94h-2.7v-3.24h-1.56zm10.99-2.16h-2.7v-3.78h2.7zm.35 15.9a4.56 4.56 0 1 1 .01-9.1 4.56 4.56 0 0 1 0 9.1zm1.86-4.54c0-2.45-3.7-2.45-3.7 0 0 2.44 3.7 2.44 3.7 0zm11.1-5.37v10.8h-4.86v15.12h-2.7v-22.6a5.13 5.13 0 0 0-5.1-5.23c-2.48 0-4.03 2.83-9.39 3.18l-9-.03a3.18 3.18 0 0 1-3.15-3.18 3.06 3.06 0 0 0-6.11 0v15.38l6.31-.01c.6-2.1 2.53-3.7 4.81-3.7h6.8a5.2 5.2 0 0 1 5.1 5.12v10.53h-2.7v-10.53a2.5 2.5 0 0 0-2.4-2.43h-6.8c-1.27 0-2.48 1.16-2.48 2.43v1.35h-11.34v-18.14a5.76 5.76 0 1 1 11.5 0c0 .26.2.48.46.48 8.94.03 10.55.42 13.7-1.52 1.76-1.08 3.3-1.63 4.68-1.63a7.7 7.7 0 0 1 7.27 5.1v-.49zm-2.7 2.7h-1.93c0 .54-.23.47-.23.62v4.78h2.16z"/></defs><g><g transform="translate(-747 -370)"><use fill="#0f1a4d" xlink:href="#ua33a"/></g></g></svg>