<svg xmlns="http://www.w3.org/2000/svg" width="19.843" height="20" viewBox="0 0 19.843 20">
  <metadata><?xpacket begin="﻿" id="W5M0MpCehiHzreSzNTczkc9d"?>
<x:xmpmeta xmlns:x="adobe:ns:meta/" x:xmptk="Adobe XMP Core 5.6-c138 79.159824, 2016/09/14-01:09:01        ">
   <rdf:RDF xmlns:rdf="http://www.w3.org/1999/02/22-rdf-syntax-ns#">
      <rdf:Description rdf:about=""/>
   </rdf:RDF>
</x:xmpmeta>
                                                                                                    
                                                                                                    
                                                                                                    
                                                                                                    
                                                                                                    
                                                                                                    
                                                                                                    
                                                                                                    
                                                                                                    
                                                                                                    
                                                                                                    
                                                                                                    
                                                                                                    
                                                                                                    
                                                                                                    
                                                                                                    
                                                                                                    
                                                                                                    
                                                                                                    
                                                                                                    
                           
<?xpacket end="w"?></metadata>
<defs>
    <style>
      .cls-1 {
        fill: #d98d57;
        fill-rule: evenodd;
      }
    </style>
  </defs>
  <path id="icon" class="cls-1" d="M519.514,626a20.569,20.569,0,0,0-9.828,4.967,7.278,7.278,0,0,0-2.555,6.257,7,7,0,0,0,3.505,4.919c0.246-.507.544-1.12,0.882-1.811a4.979,4.979,0,0,1-2.407-3.387,5.256,5.256,0,0,1,1.939-4.516,19.485,19.485,0,0,1,6.426-3.825c0.338-.629.666-1.229,0.98-1.79a1,1,0,0,1,.874-0.512,1,1,0,0,1,.872,1.488c-0.307.549-.628,1.137-0.959,1.751a21.951,21.951,0,0,1,.592,7.465c-0.352,2.237-1.7,4.628-4.441,4.628h0a6.07,6.07,0,0,1-2.086-.4c-0.338.69-.635,1.3-0.879,1.8a8.172,8.172,0,0,0,2.965.6c3.295,0,5.814-2.48,6.42-6.318,0.582-3.7-.83-10.634-1.771-11.18a1.111,1.111,0,0,0-.527-0.136m-0.628,2.145c-0.358.1-.842,0.249-1.41,0.459-0.614,1.141-1.259,2.375-1.9,3.627l0.419,1.52,1.222-.336c0.686-1.338,1.376-2.659,2.03-3.874-0.127-.556-0.253-1.034-0.357-1.4m0.444-1.843a1,1,0,0,0-.874.512c-0.314.561-.642,1.161-0.98,1.79,0.568-.21,1.052-0.36,1.41-0.459,0.1,0.362.23,0.84,0.357,1.4,0.331-.614.652-1.2,0.959-1.751a1,1,0,0,0-.872-1.488m-8.694,15.841c-0.457.944-.732,1.518-0.744,1.542a1,1,0,0,0,1.805.864c0.011-.025.281-0.589,0.73-1.515q-0.505-.2-1.019-0.458-0.4-.205-0.772-0.433m1.552-3.176c-0.237.481-.461,0.938-0.67,1.365a8.447,8.447,0,0,0,.8.461,9.14,9.14,0,0,0,.991.436c0.208-.427.432-0.882,0.668-1.362l-0.446.114-0.249.031a1,1,0,0,1-.93-0.635l-0.161-.41m2.038-4.091c-0.286.567-.567,1.127-0.839,1.673l0.5,1.276,1.258-.322c0.273-.547.554-1.108,0.84-1.676l-0.428.118-0.266.035a1,1,0,0,1-.964-0.734l-0.1-.37m-2.708,5.456c-0.338.691-.636,1.3-0.882,1.811q0.369,0.228.772,0.433,0.513,0.261,1.019.458c0.244-.5.541-1.115,0.879-1.8a9.14,9.14,0,0,1-.991-0.436,8.447,8.447,0,0,1-.8-0.461m6.616-7.135a0.988,0.988,0,0,0-.267.037l-0.654.181c-0.413.8-.825,1.615-1.227,2.412l2.412-.664a1,1,0,0,0-.264-1.966m-3.615-2.026a1.02,1.02,0,0,0-.266.036,1,1,0,0,0-.7,1.23l0.672,2.439c0.441-.874.893-1.765,1.346-2.645l-0.089-.325a1,1,0,0,0-.964-0.735m1.053,1.06c-0.453.88-.9,1.771-1.346,2.645l0.1,0.37a1,1,0,0,0,.964.734l0.266-.035,0.428-.118c0.4-.8.814-1.608,1.227-2.412l-1.222.336-0.419-1.52m2.134,4.648a0.967,0.967,0,0,0-.249.032l-2.311.592c-0.413.828-.807,1.624-1.172,2.364l3.979-1.019a1,1,0,0,0-.247-1.969m-6.01-2.9a1,1,0,0,0-.931,1.366l1.423,3.621c0.373-.756.776-1.571,1.2-2.418l-0.76-1.934a1,1,0,0,0-.931-0.635m1.691,2.569c-0.423.847-.826,1.662-1.2,2.418l0.161,0.41a1,1,0,0,0,.93.635l0.249-.031,0.446-.114c0.365-.74.759-1.536,1.172-2.364l-1.258.322-0.5-1.276m11.144-6.593c-0.295,0-.636.007-1.027,0.025a1,1,0,0,0,.031,2h0.055c0.3-.013.567-0.019,0.808-0.019,0.2,0,.382,0,0.539.01-0.035,1.754-.387,6.022-1.724,8.735-0.836,1.7-2.375,3.293-4.386,3.293a4.1,4.1,0,0,1-1.173-.176,1,1,0,0,0-.569,1.918,6.057,6.057,0,0,0,1.729.256c2.494,0,4.812-1.6,6.194-4.407,1.657-3.365,2.365-10.408,1.628-11.2-0.164-.176-0.4-0.429-2.105-0.429" transform="translate(-507.063 -626)"/>
</svg>
