<svg xmlns="http://www.w3.org/2000/svg" xmlns:xlink="http://www.w3.org/1999/xlink" width="21" height="23" viewBox="0 0 21 23"><defs><path id="5beza" d="M899.5 1272.96c-1.38 0-2.58.84-3.09 2.04h6.18a3.36 3.36 0 0 0-3.09-2.04zm0-1.68a5.05 5.05 0 0 1 4.86 3.72h3.12c.22 0 .44.09.6.24l1.67 1.68c.16.16.25.37.25.6v13.96a2.52 2.52 0 0 1-2.52 2.52h-15.96a2.52 2.52 0 0 1-2.52-2.52v-13.96c0-.23.09-.44.25-.6l1.68-1.68a.84.84 0 0 1 .59-.24h3.12a5.05 5.05 0 0 1 4.86-3.72zm8.49 6.79l-1.19-1.1h-14.6l-1.19 1.1v.8h16.98zm-3.45 2.9a.84.84 0 0 0-1.68 0 3.36 3.36 0 0 1-6.72 0 .84.84 0 0 0-1.68 0 5.05 5.05 0 0 0 10.08 0z"/></defs><g><g transform="translate(-889 -1271)"><use fill="#fff" xlink:href="#5beza"/></g></g></svg>