<svg xmlns="http://www.w3.org/2000/svg" xmlns:xlink="http://www.w3.org/1999/xlink" width="25" height="26" viewBox="0 0 25 26"><defs><path id="vx5oa" d="M1413.5 638.03a6 6 0 0 1-6-6 1 1 0 1 1 2 0 4 4 0 0 0 8 0 1 1 0 1 1 2 0 6 6 0 0 1-6 6zM1403 644a1 1 0 0 0 1 1h19a1 1 0 0 0 1-1v-15h-21zm10.5-21a4 4 0 0 0-3.46 2h6.92a4 4 0 0 0-3.46-2zm0-2c2.6 0 4.83 1.67 5.66 4h3.84a1 1 0 0 1 .7.3l2 1.99a1 1 0 0 1 .3.7v16a3 3 0 0 1-3 3h-19a3 3 0 0 1-3-3v-16a1 1 0 0 1 .3-.7l2-2a1 1 0 0 1 .7-.3h3.84c.83-2.32 3.05-4 5.66-4z"/></defs><g><g transform="translate(-1401 -621)"><use fill="#0f1a4d" xlink:href="#vx5oa"/></g></g></svg>