<svg xmlns="http://www.w3.org/2000/svg" xmlns:xlink="http://www.w3.org/1999/xlink" width="27" height="27" viewBox="0 0 27 27"><defs><path id="5qzwa" d="M1501 1313v-27h27v27zm4-13.5a9.5 9.5 0 1 0 19 0 9.5 9.5 0 0 0-19 0z"/><path id="5qzwb" d="M1514.5 1290a9.5 9.5 0 1 1 0 19 9.5 9.5 0 0 1 0-19z"/><path id="5qzwe" d="M1518.7 1298.7l-1 1-3 3a1 1 0 0 1-1.4 0l-2-2a1 1 0 1 1 1.41-1.41l1.29 1.3 2.3-2.3 1-1a1 1 0 1 1 1.4 1.42z"/><linearGradient id="5qzwc" x1="1505" x2="1524" y1="1299" y2="1300" gradientUnits="userSpaceOnUse"><stop offset="0" stop-color="#f7ba7c"/><stop offset="1" stop-color="#facc84"/></linearGradient><clipPath id="5qzwd"><use fill="#fff" xlink:href="#5qzwa"/></clipPath></defs><g><g transform="translate(-1501 -1286)"><use fill="#f7ba7c" xlink:href="#5qzwb"/><use fill="url(#5qzwc)" xlink:href="#5qzwb"/><use fill="#fff" fill-opacity="0" stroke="#fff" stroke-linecap="round" stroke-linejoin="round" stroke-miterlimit="50" stroke-width="8" clip-path="url(&quot;#5qzwd&quot;)" xlink:href="#5qzwb"/></g><g transform="translate(-1501 -1286)"><use fill="#fff" xlink:href="#5qzwe"/></g></g></svg>