<svg xmlns="http://www.w3.org/2000/svg" xmlns:xlink="http://www.w3.org/1999/xlink" width="14" height="14" viewBox="0 0 14 14"><defs><path id="annsa" d="M1066 2802.88a7.01 7.01 0 1 1-14.02.19 7.01 7.01 0 0 1 14.02-.19zm-7.66-3.46c-.02.56.3.9.98.9.8 0 1.28-.54 1.28-1.13 0-.48-.21-.89-.93-.89-.93 0-1.33.65-1.33 1.12zm2.4 6.34l-.27-.37c-.47.37-.95.55-1.1.55-.11 0-.16-.15-.05-.58l.64-2.42c.25-.89.16-1.46-.32-1.46-.59 0-1.95.58-3.13 1.57l.24.4c.37-.26 1-.51 1.15-.51.11 0 .1.15 0 .52l-.56 2.3c-.34 1.3.02 1.6.5 1.6a5.1 5.1 0 0 0 2.9-1.6z"/></defs><g><g transform="translate(-1052 -2796)"><use fill="#fff" xlink:href="#annsa"/></g></g></svg>