<svg xmlns="http://www.w3.org/2000/svg" xmlns:xlink="http://www.w3.org/1999/xlink" width="142" height="40" viewBox="0 0 142 40"><defs><path id="ess0a" d="M1230.53 8998.98c-.5 3.66-2 5.05-3.82 5.05-.86 0-3.32-.42-4.17-4.14-.62-2.76-.47-7.79-.4-9.32 0-.05-.06-.26-.18.01-.32.74-1.23 2.76-1.77 5-.83 3.41-.9 5.8-.86 6.18.08.79-.86.91-1.3.91-.71 0-1.58-.06-2.28-1.3-.25-.43-.57-1.8-.81-4.13-.33-3.15-.37-5.5-.38-6.3-.01-.4-.25-.34-.46.04-.37.66-1.16 2.01-2 5.48-.5 2.07-.45 4.86-.54 6.51-.03.63-.27.88-.57.94-.44.09-1.63.3-2.8-.14-.26-.1-.62-.3-.68-.46-.1-.26-.17-1.1-.2-2.12-.99 2.32-2.2 2.84-3.47 2.84-1.22 0-3.36-.85-3.8-3.6 0 0-.26.56-.72 1.19-2.05 2.8-6.09 3.52-8.17.21-.1-.16-.2-.33-.29-.51-.74 1.61-2.12 2.7-3.56 2.7-1.23 0-3.31-.83-4.23-3.43-1.35-3.8.13-9.48.21-9.83.08-.3-.04-.38-.43-.35-1.24.08-2.4.07-2.4.07a36.24 36.24 0 0 1-6.75 11.78l.07 4.45c.05 3.05-.6 6.15-1.57 7.58a5.6 5.6 0 0 1-5.03 2.63c-1.99-.15-4.62-1.36-4.4-4.6.18-2.54 2.57-4.72 5.7-7.6l1.88-1.72-.06-1.74-.25.36c-2.04 2.8-6.09 3.52-8.17.21a6.78 6.78 0 0 1-.39-.7c-.99 2.24-2.4 2.89-3.77 2.89a3.83 3.83 0 0 1-3.66-3.58s-.1.31-.72 1.18c-2.03 2.8-6.09 3.52-8.17.21-.44-.69-.78-1.5-1-2.44-.8 2.3-2.61 4.64-4.43 4.64-2.7 0-4.26-2.39-4.63-6.61-2.05 4.89-4.99 6.78-8.66 6.66-.94-.03-2.42-.3-3.1-.62-.8-.35-1.57-.76-1.36-1.53.21-.79.6-1.42 1.26-1.93.26-.19.68-.13.96.05.53.34.75.58 1.26.88 1.78 1.05 2.78-.03 3.05-1.07.34-1.36-.18-2.8-1.77-4.3-.69-.66-1.37-1.26-1.98-1.83l-3.36 5.62c-2.01 3.35-3.89 4.68-5.22 4.68-1.75 0-2.97-1.25-2.71-7.95l.27-6.64c.01-.26-.18-.25-.34-.1-.94.94-2.93 3.57-4.46 8.95-.99 3.46-.99 4.39-1.1 5.24-.1.72-1.98.48-2.32.4a1.28 1.28 0 0 1-.78-.5c-.2-.23-.35-.64-.44-1.14-.1-.5-.13-1.63-.13-2.6l.09-12.85c0-.42.22-.63.67-.63.95 0 2 .45 2.4.66.24.13.34.31.34.5l-.05 8.21s.59-1.56.88-2.42c2.36-6.83 4.86-6.95 5.73-6.95.57 0 1.57.57 2.04.86.77.47 1.23 1 1.2 1.91-.11 2.78-.24 5.46-.24 7.25 0 2.07-.01 4.28.71 4.28.91 0 2.11-2.18 3.7-4.93.58-1 1.26-2.27 1.75-3.22a7.3 7.3 0 0 1-.2-.23 3.26 3.26 0 0 1-.61-3.33c.53-1.71 2.33-3.31 4.52-2.81 1.32.3 1.3 1.68.76 2.88-.76 1.7-1.62 2.54-1.62 2.54a173 173 0 0 1 3.47 2.62c1.82 1.43 2.83 3.13 2.33 5.38 0 0 2.3-1.84 2.96-5.24v-.6c0-1.92.05-8.15.05-8.15-1.19-.04-2.98-.07-4-.1-.9-.04-.2-2.82.44-2.82.7 0 3.07.14 3.77.14 0 0 .06-3.56.19-4.77.08-.8.51-.99 1.46-.8.68.15 1.26.28 1.9.55.27.11.74.3.7.66-.03.43-.19 4.5-.19 4.5s1.73.12 2.35.14c.74.01 2.6.11 2.86.22.58.25.04 2.27-.53 2.3-1.12.06-1.88.04-2.72.05l-2.02.03c-.04.59-.3 6.72-.3 11.02 0 3.23.74 4.75 1.52 4.75 1.34 0 2.97-2.6 3.34-4.87 0-.8.04-1.65.15-2.56.39-3.14 1.14-4.57 2.07-5.85 1.42-1.97 3.28-2.45 5.07-1.91.67.2 1.67.87 2.29 1.85v-.7c0-.3.32-.72.78-.75.35-.03.8.02 1.32.14.5.11 1.58.43 1.59 1.05l-.07 2.26c-.04 2.02-.12 3.24-.12 6.03 0 4.79.67 5.84 1.86 5.84.92 0 1.74-1.48 2.03-2.88-.27-1.41-.3-3.08-.1-5.05.2-2.1.93-4.3 2.06-5.88 1.4-1.97 3.28-2.45 5.07-1.91.67.2 1.67.87 2.29 1.85v-.64c-.02-.47.44-.87 1.2-.81.6.04 1.17.18 1.66.37.56.22.82.39.83.84 0 .2-.05 1.08-.07 2.24a383.46 383.46 0 0 0-.06 9.56 28 28 0 0 0 1.62-2.55 24.75 24.75 0 0 0 2.6-6.48s-1.32-.76-1.1-2.4c.13-1.02.49-1.59 1.01-2.07.88-.81 3.64-1.02 3.34 1.52-.06.48-.13.76-.13.76a43.8 43.8 0 0 0 3.26-.6c1.22-.28 2.07-.05 2.47.4.44.5.61 1.02.4 2.01-.5 2.33-.96 3.94-1.03 6.22-.1 3.49.79 5.5 2.02 5.5.85 0 1.63-.74 2.05-2.55-.35-1.6-.41-3.5-.22-5.36.27-2.55.94-4.33 2.06-5.9 1.42-1.97 3.29-2.45 5.08-1.91.67.2 1.67.87 2.29 1.85v-.68c0-.43.34-.75.82-.78.34-.02.78.03 1.28.15.5.11 1.58.43 1.59 1.05 0 .2-.05 1.1-.07 2.26-.04 2.02-.13 3.24-.13 6.03 0 4.79.56 5.84 1.75 5.84 1.18 0 2.27-2.5 2.6-4.36v-.56c0-4.02.1-9.77.1-9.83 0-.5.15-.83.76-.83.49 0 1.65.28 2.23.45.13.04.57.25.57.88l-.02 6.09s.38-1.1.91-2.74c.67-2.02 1.3-3.71 1.85-4.35.64-.77 2.4-.12 2.98.25.9.56 1.07 1.25 1.07 2.06.03 4.16.26 6.14.36 7.23.02.16.1.15.11.08.16-1.36.85-4.7 2.6-8.92.61-1.5 1.85-1.04 2.7-.73 1.99.72 2.2 1.46 2.15 2.2-.19 3.6-.21 7.21-.06 9.18.19 2.5.93 3.75 1.76 3.75.75 0 1.32-.57 1.87-3.1.16-.72.35-1.15.77-1.15.53 0 .71.68.6 1.56zm-79.49-10.21c-1.66-.17-2.73 1.55-3.16 3.97-.28 1.64-.52 4.66.17 6.88.96 3.07 3.13 2.4 4.22.27.61-1.18.99-2.8 1.1-4.73.21-4.03-.62-6.23-2.33-6.4zm16.7 0c-1.76 0-2.74 2.06-3.15 4.3-.31 1.71-.46 4.44.17 6.55.92 3.08 3.16 2.41 4.22.27.52-1.04 1-2.87 1.1-4.7.23-4.54-.61-6.42-2.33-6.42zm2.77 16.83c-2.72 2.69-4.58 4.88-4.97 7.04-.45 2.43 1.7 3.34 3.3 2.13 1.12-.85 1.65-3.77 1.67-7.1v-2.07zm26.52-16.83c-1.74-.17-2.78 1.64-3.16 4.02-.37 2.35-.34 5.15.17 6.83.94 3.08 3.16 2.41 4.22.27.55-1.1 1-2.68 1.1-4.68.18-4.08-.62-6.28-2.33-6.44zm-96.29 10.85c-.07 2.14-.48 4.1-1.65 5.73-.98 1.37-2.67 2.21-3.06 1.86-.36-.32.11-1.15.4-2.37.29-1.2.45-2.42.45-6.28 0-2.86.08-16.53.08-18.05 0-.86.02-1.32-.37-.99-2.13 1.79-3.82 5.84-3.43 9.48.3 2.8 1.75 3.1 1.24 3.99-.43.75-5.7-1.54-4.44-6.96 1-4.28 4.17-7.69 7.05-8.9 1.21-.5 3.76.47 3.78 1.39.08 3.75.04 10 .04 12.13 0 2.33 0 6.4-.09 8.97z"/></defs><g><g transform="translate(-1089 -8977)"><use fill="#0f1a4d" xlink:href="#ess0a"/></g></g></svg>