<svg xmlns="http://www.w3.org/2000/svg" xmlns:xlink="http://www.w3.org/1999/xlink" width="27" height="27" viewBox="0 0 27 27"><defs><path id="dur8a" d="M408.5 3081.01c3.66 0 4.12.02 5.56.08 1.43.07 2.41.3 3.27.63.89.34 1.64.8 2.4 1.55a6.6 6.6 0 0 1 1.55 2.4c.33.85.56 1.84.63 3.27.06 1.44.08 1.9.08 5.56 0 3.67-.02 4.13-.08 5.57a9.9 9.9 0 0 1-.63 3.27c-.35.9-.8 1.64-1.56 2.4a6.62 6.62 0 0 1-2.39 1.55c-.86.33-1.84.56-3.27.63-1.44.06-1.9.08-5.57.08-3.66 0-4.12-.02-5.56-.08a9.89 9.89 0 0 1-3.28-.63 6.62 6.62 0 0 1-2.39-1.56 6.61 6.61 0 0 1-1.55-2.39 9.9 9.9 0 0 1-.63-3.27c-.06-1.44-.08-1.9-.08-5.57 0-3.66.02-4.12.08-5.56a9.9 9.9 0 0 1 .63-3.27 6.6 6.6 0 0 1 1.55-2.4 6.63 6.63 0 0 1 2.4-1.55 9.94 9.94 0 0 1 3.27-.63c1.44-.06 1.9-.08 5.56-.08 0 0-3.66 0 0 0zm0 2.43c-3.6 0-4.04.02-5.46.08a7.43 7.43 0 0 0-2.5.47c-.63.24-1.08.53-1.56 1-.47.48-.76.93-1 1.56-.19.47-.41 1.19-.47 2.5a93.59 93.59 0 0 0-.08 5.45c0 3.6.01 4.03.08 5.46.06 1.31.28 2.03.46 2.5.25.63.54 1.08 1.01 1.55.48.48.93.77 1.56 1.01.47.19 1.19.4 2.5.47 1.42.06 1.85.08 5.45.08s4.03-.02 5.46-.08a7.48 7.48 0 0 0 2.5-.47 4.19 4.19 0 0 0 1.55-1c.48-.48.77-.93 1.01-1.56.19-.47.4-1.19.47-2.5.06-1.43.08-1.85.08-5.46 0-3.6-.02-4.03-.08-5.45a7.47 7.47 0 0 0-.47-2.5 4.18 4.18 0 0 0-1-1.56 4.17 4.17 0 0 0-1.56-1 7.43 7.43 0 0 0-2.5-.47 94.08 94.08 0 0 0-5.46-.08s3.6 0 0 0zm0 3.8a7.27 7.27 0 1 1 0 14.53 7.27 7.27 0 0 1 0-14.53s-4.02 0 0 0zm0 11.94a4.67 4.67 0 1 0 0-9.35 4.67 4.67 0 0 0 0 9.35s-2.59 0 0 0zm9.02-11.84a1.66 1.66 0 1 1-3.32 0 1.66 1.66 0 0 1 3.32 0"/></defs><g><g transform="translate(-395 -3081)"><use fill="#fff" xlink:href="#dur8a"/></g></g></svg>