<svg xmlns="http://www.w3.org/2000/svg" xmlns:xlink="http://www.w3.org/1999/xlink" width="74" height="60" viewBox="0 0 74 60"><defs><path id="947va" d="M731 999.06c-6.62 0-12-5.38-12-12a2 2 0 1 1 4 0 8 8 0 0 0 16 0 2 2 0 1 1 4 0c0 6.62-5.38 12-12 12zM710 1011c0 1.1.9 2 2 2h38a2 2 0 0 0 2-2v-30h-42zm21-42a8 8 0 0 0-6.93 4h13.86a8 8 0 0 0-6.93-4zm0-4c5.22 0 9.66 3.34 11.31 8H750a2 2 0 0 1 1.41.58l4 4A2 2 0 0 1 756 979v32a6 6 0 0 1-6 6h-38a6 6 0 0 1-6-6v-32a2 2 0 0 1 .6-1.43l3.99-3.99A2 2 0 0 1 712 973h7.68c1.66-4.66 6.1-8 11.32-8z"/><path id="947vb" d="M761 987a19 19 0 1 1 0 38 19 19 0 0 1 0-38z"/><path id="947vd" d="M761 996a2 2 0 0 1 2 2v8a2 2 0 0 1-4 0v-8c0-1.1.9-2 2-2zm0 16a2 2 0 1 1 0 4 2 2 0 0 1 0-4z"/><linearGradient id="947vc" x1="742" x2="780" y1="1006" y2="1006" gradientUnits="userSpaceOnUse"><stop offset="0" stop-color="#f7ba7c"/><stop offset="1" stop-color="#facc84"/></linearGradient></defs><g><g transform="translate(-706 -965)"><g><use fill="#0f1a4d" xlink:href="#947va"/></g><g><use fill="#f7ba7c" xlink:href="#947vb"/><use fill="url(#947vc)" xlink:href="#947vb"/></g><g><use fill="#fff" xlink:href="#947vd"/></g></g></g></svg>