<svg xmlns="http://www.w3.org/2000/svg" xmlns:xlink="http://www.w3.org/1999/xlink" width="13" height="13" viewBox="0 0 13 13"><defs><path id="ikeya" d="M498 9332.29c0 .9-.58 1.5-.64 1.57-2.44 2.42-6.45.63-9.16-2.06-1.54-1.54-3.2-4-3.2-6.3 0-1.13.39-2.07 1.14-2.83.04-.03.91-.89 2.06-.64.84.19 2.83 1.65 2.83 3.28a2 2 0 0 1-.63 1.44c-.55.56-.94.72-1.25.73.1.42.52 1.21 1.34 2.03a5 5 0 0 0 2.07 1.38c.04-.35.28-.72.75-1.2a1.96 1.96 0 0 1 2.04-.54 4.5 4.5 0 0 1 2.6 2.7c.04.14.05.29.05.44z"/></defs><g><g transform="translate(-485 -9322)"><use fill="#fff" xlink:href="#ikeya"/></g></g></svg>