<svg xmlns="http://www.w3.org/2000/svg" xmlns:xlink="http://www.w3.org/1999/xlink" width="188" height="122" viewBox="0 0 188 122"><defs><path id="t7rxa" d="M920 651a54 54 0 1 1 0 108 54 54 0 0 1 0-108z"/><path id="t7rxb" d="M944.01 718.98a8.68 8.68 0 0 1-2.38 5.8c-9 8.96-23.84 2.35-33.81-7.6-5.72-5.69-11.82-14.8-11.82-23.3 0-4.13 1.41-7.63 4.2-10.41.13-.13 3.35-3.29 7.6-2.36 3.1.67 10.45 6.08 10.45 12.08 0 2-.78 3.78-2.32 5.33-2.04 2.05-3.47 2.66-4.63 2.7.35 1.55 1.93 4.48 4.97 7.52 3.37 3.36 6.3 4.78 7.63 5.07.16-1.3 1.02-2.65 2.79-4.43a7.23 7.23 0 0 1 7.5-2c4.94 1.44 9.05 7.28 9.65 9.97.11.53.17 1.08.17 1.63z"/><path id="t7rxg" d="M1054 732.98c0 20.98-17 37.99-37.99 37.99h-40.06a37.82 37.82 0 0 1-17.64-4.33c-10.87 9.34-23.87 5.63-23.87 5.63s13.09-5.29 6.98-23.44a37.84 37.84 0 0 1-3.45-15.85v-.01-.01c0-20.98 17-37.99 37.98-37.99h40.06c20.98 0 37.99 17.01 37.99 37.99v.02z"/><path id="t7rxi" d="M976 728a5 5 0 1 1 0 10 5 5 0 0 1 0-10zm20 0a5 5 0 1 1 0 10 5 5 0 0 1 0-10zm20 0a5 5 0 1 1 0 10 5 5 0 0 1 0-10z"/><clipPath id="t7rxc"><use fill="#fff" xlink:href="#t7rxa"/></clipPath><mask id="t7rxe" width="2.16" height="2.16" x="-1.08" y="-1.08"><path fill="#fff" d="M892 676h57v57h-57z"/><use xlink:href="#t7rxb"/></mask><filter id="t7rxd" width="77" height="77" x="882" y="666" filterUnits="userSpaceOnUse"><feOffset in="SourceGraphic" result="FeOffset1033Out"/><feGaussianBlur in="FeOffset1033Out" result="FeGaussianBlur1034Out" stdDeviation="0 0"/></filter><clipPath id="t7rxf"><use fill="#fff" xlink:href="#t7rxb"/></clipPath><linearGradient id="t7rxh" x1="934.44" x2="1054.44" y1="734" y2="733.97" gradientUnits="userSpaceOnUse"><stop offset="0" stop-color="#00a7cc"/><stop offset="1" stop-color="#23bad4"/></linearGradient></defs><g><g transform="translate(-866 -651)"><g><use fill="#f7ad63" xlink:href="#t7rxa"/><use fill="#fff" fill-opacity="0" stroke="#0f1a4d" stroke-linecap="round" stroke-linejoin="round" stroke-miterlimit="50" stroke-width="16" clip-path="url(&quot;#t7rxc&quot;)" xlink:href="#t7rxa"/></g><g><g filter="url(#t7rxd)"><use fill="none" stroke="#0f1a4d" stroke-width="8" mask="url(&quot;#t7rxe&quot;)" xlink:href="#t7rxb"/><use fill="#0f1a4d" xlink:href="#t7rxb"/></g><use fill="#0f1a4d" xlink:href="#t7rxb"/><use fill="#fff" fill-opacity="0" stroke="#0f1a4d" stroke-linecap="round" stroke-linejoin="round" stroke-miterlimit="50" stroke-width="8" clip-path="url(&quot;#t7rxf&quot;)" xlink:href="#t7rxb"/></g><g><use fill="#00a7cc" xlink:href="#t7rxg"/><use fill="url(#t7rxh)" xlink:href="#t7rxg"/></g><g><use fill="#fff" xlink:href="#t7rxi"/></g></g></g></svg>