<svg xmlns="http://www.w3.org/2000/svg" xmlns:xlink="http://www.w3.org/1999/xlink" width="14" height="14" viewBox="0 0 14 14"><defs><path id="e61da" d="M1384.54 1051.82l.01.01-6 4v-.02a.97.97 0 0 1-.55.19.97.97 0 0 1-.54-.19l-.02.02-6-4 .02-.01a.98.98 0 0 1-.46-.82 1 1 0 0 1 1-1c.2 0 .39.07.54.18l.01-.01 5.45 3.63 5.45-3.63v.01c.16-.1.34-.18.55-.18a1 1 0 0 1 1 1c0 .35-.19.64-.46.82zm0-4l.01.01-6 4v-.01a.97.97 0 0 1-.55.18.97.97 0 0 1-.54-.18l-.02.01-6-4 .02-.01a.98.98 0 0 1-.46-.82c0-.35.19-.64.46-.82l-.02-.01 6-4 .02.01c.15-.1.33-.18.54-.18.2 0 .39.08.54.18l.01-.01 6 4v.01c.26.18.45.47.45.82s-.19.64-.46.82zm-6.54-3.62l-4.2 2.8 4.2 2.8 2.71-1.81 1.49-1z"/></defs><g><g transform="translate(-1371 -1042)"><use fill="#989cb2" xlink:href="#e61da"/></g></g></svg>