<svg xmlns="http://www.w3.org/2000/svg" xmlns:xlink="http://www.w3.org/1999/xlink" width="14" height="12" viewBox="0 0 14 12"><defs><path id="h3c8a" d="M1458 825.13v.02c0 .47-.38.85-.85.85h-.7v-.01a.81.81 0 0 1-.23 0 6 6 0 0 1-3.95-9.4l-.97-1.35a.78.78 0 0 1 .63-1.23h3.58c.51 0 .89.48.75.98l-.58 2.08-.42 1.5a.78.78 0 0 1-1.38.25l-.52-.73a4.29 4.29 0 0 0 3.1 6.2h.7c.46 0 .84.38.84.84zm6.7-.38a.78.78 0 0 1-.63 1.24h-3.58a.78.78 0 0 1-.75-.98l.58-2.08.42-1.5a.78.78 0 0 1 1.38-.25l.52.73a4.29 4.29 0 0 0-3.1-6.2h-.7a.85.85 0 0 1-.84-.84v-.02c0-.47.38-.85.84-.85h.7v.01a.8.8 0 0 1 .24 0 6 6 0 0 1 3.95 9.4z"/></defs><g><g transform="translate(-1451 -814)"><use fill="#989cb3" xlink:href="#h3c8a"/></g></g></svg>