<svg id="Группа_1" data-name="Группа 1" xmlns="http://www.w3.org/2000/svg" width="18" height="23" viewBox="0 0 18 23">
  <metadata><?xpacket begin="﻿" id="W5M0MpCehiHzreSzNTczkc9d"?>
<x:xmpmeta xmlns:x="adobe:ns:meta/" x:xmptk="Adobe XMP Core 5.6-c138 79.159824, 2016/09/14-01:09:01        ">
   <rdf:RDF xmlns:rdf="http://www.w3.org/1999/02/22-rdf-syntax-ns#">
      <rdf:Description rdf:about=""/>
   </rdf:RDF>
</x:xmpmeta>
                                                                                                    
                                                                                                    
                                                                                                    
                                                                                                    
                                                                                                    
                                                                                                    
                                                                                                    
                                                                                                    
                                                                                                    
                                                                                                    
                                                                                                    
                                                                                                    
                                                                                                    
                                                                                                    
                                                                                                    
                                                                                                    
                                                                                                    
                                                                                                    
                                                                                                    
                                                                                                    
                           
<?xpacket end="w"?></metadata>
<defs>
    <style>
      .cls-1 {
        fill: #85cc3d;
      }

      .cls-1, .cls-2 {
        fill-rule: evenodd;
      }

      .cls-2 {
        fill: #f77c90;
      }
    </style>
  </defs>
  <path id="icon" class="cls-1" d="M521,643.962a3.989,3.989,0,0,1,4.075-3.042c-0.155,1.584-.894,2.818-4.075,3.042m4.19-5.043A5.917,5.917,0,0,0,519,645v1h0.886c6.407,0,7.114-3.212,7.114-6.011V639.12L526.224,639a6.868,6.868,0,0,0-1.032-.08M515,643.962c-3.181-.224-3.92-1.458-4.075-3.042A3.988,3.988,0,0,1,515,643.962m-4.162-5.043a6.868,6.868,0,0,0-1.032.08l-0.8.121v0.869c0,2.8.707,6.011,7.114,6.011H517v-1a5.894,5.894,0,0,0-6.164-6.08M518,639a1,1,0,0,1,1,1v6a1,1,0,0,1-2,0v-6A1,1,0,0,1,518,639Z" transform="translate(-509 -624)"/>
  <path id="icon-2" data-name="icon" class="cls-2" d="M518.765,635.493a1,1,0,0,0,.945-0.662,6.389,6.389,0,0,0-.516-5.57c0.261-.3.7-0.775,1.208-1.256,1.608,2.868,1.964,5.362.993,7.1a3.865,3.865,0,0,1-3.454,1.931,3.768,3.768,0,0,1-3.355-1.831c-0.975-1.715-.625-4.241.977-7.191,2.346,2.123,3.021,4.009,2.258,6.17a0.983,0.983,0,0,0,.616,1.255,1.017,1.017,0,0,0,.328.055M515.3,625.5a1.073,1.073,0,0,0-.17.014,1,1,0,0,0-.683.458c-3.356,5.419-2.444,8.712-1.6,10.193a5.747,5.747,0,0,0,5.1,2.838,5.919,5.919,0,0,0,5.206-2.952c0.839-1.5,1.74-4.808-1.648-10.092a1,1,0,0,0-.673-0.444,0.988,0.988,0,0,0-.171-0.015,1.016,1.016,0,0,0-.614.206l-0.144.112c0.173,0.229.367,0.487,0.584,0.777l-1.607,1.174c-0.168-.225-0.319-0.425-0.454-0.6-0.159.162-.3,0.317-0.432,0.457-0.147-.163-0.3-0.323-0.451-0.477-0.135.179-.285,0.38-0.453,0.605l-1.611-1.169c0.213-.286.4-0.54,0.573-0.766l-0.12-.1a1.011,1.011,0,0,0-.629-0.219m2.671-1.5c-0.5,0-.559,0-1.922,1.819a18.386,18.386,0,0,1,1.491,1.33c0.167-.223.311-0.412,0.433-0.573,0.126,0.165.275,0.361,0.45,0.593a15.517,15.517,0,0,1,1.477-1.347C518.524,624,518.468,624,517.968,624m1.929,1.822a15.517,15.517,0,0,0-1.477,1.347c0.135,0.179.286,0.379,0.454,0.6l1.607-1.174c-0.217-.29-0.411-0.548-0.584-0.777m-3.851,0c-0.17.226-.36,0.48-0.573,0.766l1.611,1.169c0.168-.225.318-0.426,0.453-0.605a18.386,18.386,0,0,0-1.491-1.33" transform="translate(-509 -624)"/>
</svg>
