<svg xmlns="http://www.w3.org/2000/svg" xmlns:xlink="http://www.w3.org/1999/xlink" width="148" height="120" viewBox="0 0 148 120"><defs><path id="yxfia" d="M957 719.12c-13.23 0-24-10.76-24-24a4 4 0 0 1 8 0c0 8.82 7.18 16 16 16s16-7.18 16-16a4 4 0 1 1 8 0c0 13.24-10.77 24-24 24zM915 743a4 4 0 0 0 4 4h76a4 4 0 0 0 4-4v-60h-84zm42-84a16.01 16.01 0 0 0-13.85 8h27.7c-2.77-4.78-7.94-8-13.85-8zm0-8a24.04 24.04 0 0 1 22.63 16H995a4 4 0 0 1 2.83 1.17l7.94 7.94A3.99 3.99 0 0 1 1007 679v64c0 6.61-5.38 12-12 12h-76c-6.62 0-12-5.39-12-12v-64c0-1.14.47-2.16 1.23-2.9l7.94-7.93A4 4 0 0 1 919 667h15.37c3.3-9.32 12.2-16 22.63-16z"/><path id="yxfib" d="M1017 695a38 38 0 1 1 0 76 38 38 0 0 1 0-76z"/><path id="yxfid" d="M1033.83 729.82l-4 4-12 12a4 4 0 0 1-5.66 0l-8-8a4 4 0 0 1 5.66-5.66l5.17 5.18 9.17-9.17 4-4a3.99 3.99 0 0 1 6.83 2.82c0 1.1-.45 2.11-1.17 2.83z"/><linearGradient id="yxfic" x1="979" x2="1055" y1="733" y2="733" gradientUnits="userSpaceOnUse"><stop offset="0" stop-color="#00a7cc"/><stop offset="1" stop-color="#23bad4"/></linearGradient></defs><g><g transform="translate(-907 -651)"><g><use fill="#0f1a4d" xlink:href="#yxfia"/></g><g><use fill="#00a7cc" xlink:href="#yxfib"/><use fill="url(#yxfic)" xlink:href="#yxfib"/></g><g><use fill="#fff" xlink:href="#yxfid"/></g></g></g></svg>