<svg xmlns="http://www.w3.org/2000/svg" xmlns:xlink="http://www.w3.org/1999/xlink" width="27" height="27" viewBox="0 0 27 27"><defs><path id="so5pa" d="M1433.15 9604h18.7c2.3 0 4.15 1.86 4.15 4.15v18.7c0 2.29-1.86 4.15-4.15 4.15h-18.7a4.16 4.16 0 0 1-4.15-4.16v-18.69c0-2.3 1.86-4.15 4.15-4.15zm9.2 18.93h1.1s.34-.04.51-.22c.16-.17.15-.49.15-.49s-.02-1.5.67-1.71c.68-.22 1.55 1.43 2.47 2.06.7.48 1.22.36 1.22.36h2.47s1.29-.1.68-1.11c-.05-.09-.36-.75-1.84-2.12-1.54-1.44-1.33-1.2.53-3.69 1.13-1.51 1.59-2.43 1.44-2.83-.13-.37-.96-.3-.96-.3l-2.78-.01s-.2-.02-.36.07a.78.78 0 0 0-.24.32s-.44 1.2-1.03 2.19c-1.24 2.1-1.73 2.2-1.93 2.08-.47-.3-.35-1.22-.35-1.87 0-2.04.3-2.89-.6-3.1a4.7 4.7 0 0 0-1.3-.13c-1-.01-1.83 0-2.3.23-.32.16-.56.5-.41.52.18.03.6.11.81.41.29.39.28 1.26.28 1.26s.16 2.4-.38 2.69c-.38.2-.89-.21-2-2.12-.56-.97-.98-2.07-.98-2.07s-.08-.2-.23-.31a1.14 1.14 0 0 0-.43-.17h-2.64s-.4.01-.54.18c-.13.16 0 .47 0 .47s2.06 4.87 4.4 7.3c2.14 2.24 4.57 2.1 4.57 2.1z"/></defs><g><g transform="translate(-1429 -9604)"><use fill="#4a76a7" xlink:href="#so5pa"/></g></g></svg>