<svg xmlns="http://www.w3.org/2000/svg" width="22" height="19.312" viewBox="0 0 22 19.312">
  <metadata><?xpacket begin="﻿" id="W5M0MpCehiHzreSzNTczkc9d"?>
<x:xmpmeta xmlns:x="adobe:ns:meta/" x:xmptk="Adobe XMP Core 5.6-c138 79.159824, 2016/09/14-01:09:01        ">
   <rdf:RDF xmlns:rdf="http://www.w3.org/1999/02/22-rdf-syntax-ns#">
      <rdf:Description rdf:about=""/>
   </rdf:RDF>
</x:xmpmeta>
                                                                                                    
                                                                                                    
                                                                                                    
                                                                                                    
                                                                                                    
                                                                                                    
                                                                                                    
                                                                                                    
                                                                                                    
                                                                                                    
                                                                                                    
                                                                                                    
                                                                                                    
                                                                                                    
                                                                                                    
                                                                                                    
                                                                                                    
                                                                                                    
                                                                                                    
                                                                                                    
                           
<?xpacket end="w"?></metadata>
<defs>
    <style>
      .cls-1 {
        fill: #6fbff7;
        fill-rule: evenodd;
      }
    </style>
  </defs>
  <path id="icon" class="cls-1" d="M527,636a1,1,0,0,1-1,1H514a1,1,0,0,1,0-2h12A1,1,0,0,1,527,636Zm-8,0a1,1,0,0,1-1,1H506a1,1,0,0,1,0-2h12A1,1,0,0,1,519,636Zm1.135,9.161-4-6.928-2-3.464-4-6.928a1,1,0,1,1,1.732-1l4,6.928,2,3.464,4,6.928A1,1,0,1,1,520.135,645.159Zm1.363-18.686a1,1,0,0,1,.367,1.366l-6,10.392a1,1,0,1,1-1.732-1l6-10.392A1,1,0,0,1,521.5,626.473Zm-4,6.928a1,1,0,0,1,.367,1.366l-6,10.393a1,1,0,0,1-1.732-1l6-10.393A1,1,0,0,1,517.5,633.4Zm-9.242,6a0.74,0.74,0,0,1-.524-0.218,0.751,0.751,0,0,1,0-1.057l2.134-2.148-2.134-2.149a0.751,0.751,0,0,1,0-1.057,0.739,0.739,0,0,1,1.049,0l2.66,2.677a0.752,0.752,0,0,1,0,1.057l-2.66,2.677A0.741,0.741,0,0,1,508.256,639.4Zm15.464,0a0.734,0.734,0,0,1-.525-0.22l-2.66-2.676a0.751,0.751,0,0,1,0-1.056l2.66-2.677a0.739,0.739,0,0,1,1.049,0,0.751,0.751,0,0,1,0,1.057l-2.134,2.148,2.134,2.148a0.75,0.75,0,0,1,0,1.056A0.731,0.731,0,0,1,523.72,639.4Zm-14.552-8.415a0.737,0.737,0,0,1-.073-0.564,0.75,0.75,0,0,1,.915-0.528l2.928,0.774,0.794-2.923a0.749,0.749,0,0,1,.914-0.528,0.738,0.738,0,0,1,.525.909l-0.989,3.642a0.75,0.75,0,0,1-.914.528l-3.648-.965A0.737,0.737,0,0,1,509.168,630.987Zm7.732,13.391a0.741,0.741,0,0,1-.072-0.564l0.988-3.641a0.747,0.747,0,0,1,.914-0.528l3.648,0.965a0.738,0.738,0,0,1,.525.909,0.751,0.751,0,0,1-.915.528l-2.928-.775-0.793,2.923a0.75,0.75,0,0,1-.915.528A0.737,0.737,0,0,1,516.9,644.378Zm-1.812.021a0.737,0.737,0,0,1-.452.345,0.749,0.749,0,0,1-.914-0.528l-0.794-2.923-2.928.775a0.752,0.752,0,0,1-.915-0.529,0.739,0.739,0,0,1,.525-0.909l3.648-.964a0.749,0.749,0,0,1,.915.528l0.988,3.641A0.736,0.736,0,0,1,515.088,644.4Zm7.731-13.392a0.737,0.737,0,0,1-.452.345l-3.647.965a0.75,0.75,0,0,1-.915-0.528l-0.988-3.642a0.737,0.737,0,0,1,.524-0.908,0.749,0.749,0,0,1,.915.528l0.793,2.923,2.928-.775a0.75,0.75,0,0,1,.915.528A0.736,0.736,0,0,1,522.819,631.007Z" transform="translate(-505 -626.344)"/>
</svg>
