<svg xmlns="http://www.w3.org/2000/svg" xmlns:xlink="http://www.w3.org/1999/xlink" width="33" height="23" viewBox="0 0 33 23"><defs><path id="8tpua" d="M1544.68 9610.98s.33 2.67.33 5.34v2.4c0 2.67-.33 5.34-.33 5.34s-.32 2.28-1.31 3.28c-1.26 1.31-2.66 1.32-3.31 1.4-4.62.33-11.56.34-11.56.34s-8.59-.08-11.23-.33c-.73-.14-2.38-.1-3.64-1.41-.99-1-1.31-3.28-1.31-3.28s-.33-2.67-.33-5.34v-2.4c0-2.67.33-5.34.33-5.34s.32-2.28 1.31-3.28c1.26-1.32 2.66-1.32 3.3-1.4 4.63-.33 11.56-.33 11.56-.33h.02s6.93 0 11.55.33c.65.08 2.05.08 3.3 1.4 1 1 1.32 3.28 1.32 3.28zm-19.59 10.88l8.92-4.62-8.92-4.66z"/></defs><g><g transform="translate(-1512 -9606)"><use fill="#fe0302" xlink:href="#8tpua"/></g></g></svg>