<svg xmlns="http://www.w3.org/2000/svg" xmlns:xlink="http://www.w3.org/1999/xlink" width="29" height="21" viewBox="0 0 29 21"><defs><path id="jd4ka" d="M422.2 3165.95s.27 2.27.27 4.53v2.02c0 2.26-.28 4.52-.28 4.52s-.27 1.93-1.1 2.78c-1.07 1.11-2.26 1.12-2.8 1.18-3.92.28-9.79.3-9.79.3s-7.26-.07-9.5-.29c-.62-.11-2.02-.08-3.08-1.2-.84-.84-1.11-2.77-1.11-2.77s-.28-2.26-.28-4.52v-2.02c0-2.26.28-4.53.28-4.53s.27-1.92 1.1-2.77c1.07-1.11 2.26-1.12 2.8-1.18 3.92-.28 9.78-.28 9.78-.28h.02s5.86 0 9.77.28c.55.06 1.74.07 2.8 1.18.84.85 1.11 2.77 1.11 2.77zm-16.58 9.21l7.54-3.9-7.55-3.95z"/></defs><g><g transform="translate(-394 -3161)"><use fill="#fff" xlink:href="#jd4ka"/></g></g></svg>